
<svg version="1.1" id="Layer_1" xmlns="http://www.w3.org/2000/svg" xmlns:xlink="http://www.w3.org/1999/xlink" x="0px" y="0px"
	 width="200px" height="200px" viewBox="0 0 200 200" enable-background="new 0 0 200 200" xml:space="preserve">
<rect x="0" y="0"  width="200" height="200" rx="40" ry="40" fill="#000" />

<g>
	<g>
		<g>
			<path fill-rule="evenodd" clip-rule="evenodd" fill="#FFFFFF" d="M118.56,86.6c-8.604-4.479-21.249-2.394-31.853,0.522
				C90.958,77.548,113.967,77.649,118.56,86.6z"/>
			<path fill-rule="evenodd" clip-rule="evenodd" fill="#FFFFFF" d="M132.134,91.298c2.511,15.769-0.07,36.113,8.354,46.991
				c-6.515-0.016-15.177-2.16-16.707-8.875c3.635-0.082,7.023,4.408,12.008,4.698C131.87,123.222,127.956,105.209,132.134,91.298z"
				/>
			<path fill-rule="evenodd" clip-rule="evenodd" fill="#FFFFFF" d="M102.892,92.343c11.88-1.261,25.02,14.14,17.756,28.718
				c-5.176,10.389-24.102,11.539-30.809,1.566C81.446,110.146,89.864,93.726,102.892,92.343z M98.714,101.74
				c-11.776,9.776,2.362,30.741,15.146,21.931c6.371-4.393,5.455-24.044-1.566-26.107C106.094,98.409,101.223,99.659,98.714,101.74z
				"/>
			<path fill-rule="evenodd" clip-rule="evenodd" fill="#FFFFFF" d="M60.603,109.053c-0.321,2.168-4.061,1.722-5.743,1.044
				c-6.232,2.752-1.392,15.039-1.566,19.317C45.275,124.788,49.077,99.732,60.603,109.053z"/>
			<path fill-rule="evenodd" clip-rule="evenodd" fill="#FFFFFF" d="M109.16,118.45c-3.738-0.368-6.533-0.804-7.312-3.133
				C97.299,101.728,122.891,108.921,109.16,118.45z"/>
			<path fill-rule="evenodd" clip-rule="evenodd" fill="#FFFFFF" d="M65.301,120.016c-1.287-0.068-2.516-0.078-3.133,0.522
				c-0.262,3.221,1.447,4.471,1.044,7.831c-1.614,1.811-3.613,2.378-6.265,1.045c0-0.522,0-1.045,0-1.566
				c-0.239-1.632,1.115-1.669,2.61-1.566C55.673,120.022,64.022,110.284,65.301,120.016z"/>
			<path fill-rule="evenodd" clip-rule="evenodd" fill="#FFFFFF" d="M53.815,116.361c2.595,0.495,4.303,4.218,3.132,6.787
				c-2.864,0.602-0.087-4.438-3.655-3.133C53.298,118.629,53.096,117.034,53.815,116.361z"/>
			<path fill-rule="evenodd" clip-rule="evenodd" fill="#FFFFFF" d="M149.885,126.281c1.203,0.885,2.863,1.313,2.61,3.654
				C150.626,129.716,149.983,128.271,149.885,126.281z"/>
			<path fill-rule="evenodd" clip-rule="evenodd" fill="#FFFFFF" d="M149.362,135.679c-2.079,0.339-3.193-0.287-3.132-2.089
				C147.562,132.412,150.194,133.099,149.362,135.679z"/>
			<path fill-rule="evenodd" clip-rule="evenodd" fill="#FFFFFF" d="M96.104,135.156c2.189-0.274,2.069,1.76,2.61,3.133
				c-0.667,0.714-2.465,0.714-3.132,0C95.203,136.692,96.483,136.753,96.104,135.156z"/>
			<path fill-rule="evenodd" clip-rule="evenodd" fill="#FFFFFF" d="M107.071,138.289c0.348,0,0.696,0,1.044,0
				c6.08,10.075,21.748,9.302,32.372,3.654c2.205,6.074-9.173,6.062-15.663,8.354C115.191,153.7,107.728,151.817,107.071,138.289z
				 M118.56,148.73c-2.276-0.508-3.76-1.81-5.743-2.61C112.423,148.976,116.896,151.261,118.56,148.73z"/>
			<path fill-rule="evenodd" clip-rule="evenodd" fill="#FFFFFF" d="M89.839,141.943c2.267-0.178,2.739,1.438,3.133,3.133
				c-1.188,0.254-2.667,1.036-3.655,0C88.94,143.48,89.851,143.174,89.839,141.943z"/>
			<path fill-rule="evenodd" clip-rule="evenodd" fill="#FFFFFF" d="M97.148,144.032c1.328,0.063,2.024,0.76,2.089,2.088
				c-0.508,0.015-0.406,0.64-0.523,1.044c-0.87,0-1.74,0-2.61,0C95.691,145.359,96.685,144.96,97.148,144.032z"/>
			<path fill-rule="evenodd" clip-rule="evenodd" fill="#FFFFFF" d="M145.708,193.107c-2.089,0-4.177,0-6.265,0
				c7.16-2.236,12.372-6.422,18.795-9.397c0.166,1.227,0.824,1.96,0.521,3.655C152.705,187.575,150.032,191.167,145.708,193.107z"/>
			<path fill-rule="evenodd" clip-rule="evenodd" fill="#FFFFFF" d="M161.37,193.107c-1.218,0-2.437,0-3.654,0
				c1.128-1.135-0.179-4.703,1.566-5.221C160.867,188.738,160.558,191.484,161.37,193.107z"/>
			<path fill-rule="evenodd" clip-rule="evenodd" fill="#FFFFFF" d="M39.337,78.903c0.5-2.773,2.226-4.992,3.699-7.415
				c2.645-4.35,0.221-8.044,1.765-12.378c1.1-3.087,4.075-5.561,6.804-7.233c1.209-0.741,2.379-1.547,3.603-2.265
				c0.88-0.517,3.954-1.406,4.445-2.124c0.978-1.427-0.013-0.859-0.38-2.266c-0.063-0.242-1.603-2.966-0.237-3
				c2.715-0.069,4.583-0.986,6.265-2.088c-6.857-18.277,23.748-12.529,39.158-12.008c-2.521-6.662-13.742-11.937-10.443-19.317
				c-0.05,0.112,14.157,8.726,15.502,9.421c2.884,1.49,6.124,2.921,9.36,3.398c3.595,0.53,5.1,1.09,7.844,3.242
				c1.89,1.481,4.227,2.25,6.537,3.004c5.073,1.657,10.327,2.676,15.479,4.046c9.388,2.496,19.338,6.512,21.508,17.089
				c-0.372,2.064-2.732,2.14-3.654,3.655c4.649,2.034,7.503,10.411,1.044,12.53c2.082,3.487,5.828,5.31,5.221,11.486
				c-1.185,1.252-4.455,0.417-5.221,2.088c3.706,6.215,9.964,12.658,10.441,20.361c-7.2-3.068-10.015-10.521-18.272-12.53
				c-0.595,7.924,5.421,11.564,5.221,19.319c-0.309,11.904-12.275,18.021-24.538,12.531c-10.903-12.02-1.568-32.123,17.229-29.762
				c0.229-1.794-0.206-2.926-0.522-4.177c-6.32-0.404-11.664,7.346-16.706,3.133c2.142-3.949,8.167-4.015,12.008-6.265
				c-11.137-12.99-50.867-19.179-60.568-1.044c-0.934-1.502-0.999-3.874-1.566-5.743c-4.198,1.023-4.807,5.635-8.875,6.787
				c-0.372-2.385,0.588-5.295,0-6.265c-25.255-2.223-14.382,17.611-13.052,30.805c-3.091-6.286-11.677-23.146-4.699-29.761
				c5.196-4.925,15.251-1.742,21.405-6.265c1.011,0.556,0.728,2.405,1.566,3.132c1.187-1.772,1.923-3.994,4.699-4.176
				c1.357,1.427,0.604,4.964,1.566,6.787c4.85-2.189,6.202-7.781,10.965-8.354c34.687-4.168,51.518,13.921,68.92,24.538
				c-8.384-18.765-24.535-29.762-36.024-45.421c9.309,9.313,19.451,17.792,27.148,28.714c1.946-1.286,2.719-0.501,5.743-0.522
				c-1.714-4.551-6.226-6.304-6.265-12.53c0.336-1.542,3.27-2.212,4.698-1.044c-0.858-4.884-5.844-5.642-5.221-12.008
				c1.626-0.288,3.402-0.426,4.699-1.044c-14.69-19.419-52.706-18.297-70.487-32.891c4.368,7.988,12.807,11.909,17.757,19.317
				c-9.227-0.579-48.123-8.453-48.56,1.566c-0.145,3.33,4.438,2.498,3.655,6.787c-1.074,1.711-4.414,1.155-6.265,2.088
				c-0.71,0.864,0.426,3.046,0,5.221c-5.892,4.281-20.728,5.328-15.141,16.185c-1.365,6.057-6.817,8.668-6.787,15.141
				c0.014,2.924,2.596,5.724,2.611,8.875c0.022,4.688-5.964,10.949-0.522,14.621c2.168-13.73,21.664-6.281,22.45,2.611
				c-7.146,0.094-7.109-7.915-14.096-6.79c-8.88,1.43-7.66,28.823,1.044,34.46c7.96,5.155,13.482-1.351,14.097-9.397
				c4.123,3.871,0.657,9.292-1.044,13.053c8.108,34.792,83.322,39.571,88.238-0.522c0.475-2.562-2.188-1.988-2.088-4.177
				c6.059-0.026,0.747-11.182,4.177-12.53c4.506,9.155-0.532,22.797-3.654,30.804c19.722,2.727,18.942,25.956,26.626,40.722
				c-1.219,0-2.437,0-3.654,0c0.431-1.476-0.736-1.352-0.522-2.61c-1.857,0.231-2.286,1.891-3.654,2.61c-1.74,0-3.48,0-5.221,0
				c8.704-2.424,6.663-9.193,3.132-17.75c-3.33-8.07-6.093-18.553-15.141-19.317c-10.38,28.52-80.332,31.257-86.149-3.133
				c-2.155,0.804-4.536,1.381-5.221,3.654c4.726,4.607,9.437,8.656,14.618,13.574c3.292,3.125,10.514,12.091,15.141,12.53
				c3.601,0.342,7.313-2.405,10.965-2.088c7.933,0.688,12.146,5.994,16.189,12.529c-1.219,0-2.437,0-3.654,0
				c-1.322-3.202-3.585-5.465-6.789-6.787c1.297,2.706,4.688,3.319,5.223,6.787c-0.87,0-1.74,0-2.611,0
				c-2.846-6.041-17.03-6.213-19.844,0c-2.437,0-4.873,0-7.31,0c1.362-9.249-16.865-21.106-22.972-27.147
				c-1.979-1.958-2.672-4.645-5.221-5.222c-3.645,3.839-7.545,7.422-9.919,12.53c4.561,7.273,9.315,14.353,18.795,16.707
				c2.273-1.382,2.141-5.169,5.221-5.743c3.109,4.2,9.567,5.051,13.052,8.875c-1.915,0-3.829,0-5.743,0c0-0.174,0-0.348,0-0.521
				c-3.736-0.962-5.353-4.045-8.353-5.743c-1.142,1.816-1.75,4.168-2.61,6.265c-0.87,0-1.74,0-2.611,0
				c-9.312-3.043-14.254-10.457-19.839-17.229c-4.448,7.572,4.386,13.101,8.353,17.229c-1.392,0-2.784,0-4.176,0
				c-2.295-3.447-4.649-6.836-7.832-9.397c-1.646,3.227-3.614,6.132-5.221,9.397c-0.696,0-1.392,0-2.088,0
				c5.382-13.412,10.916-26.674,21.405-34.979c-12.826-12.233-25.389-24.73-39.678-35.501c0-1.74,0-3.481,0-5.222
				c15.496,12.35,30.577,25.112,45.943,37.591c0.861-3.315,5.437-2.917,6.265-6.266c-1.248-3.451-3.494-5.903-5.221-8.875
				c-18.477,1.887-19.518-16.252-19.317-31.323c0.01-0.777-1.803-2.638-2.21-3.387c-0.794-1.46-1.295-2.915-1.701-4.52
				c-0.469-1.856-1.519-4.542-0.725-6.433c0.842-2.003,2.816-2.368,3.069-4.983c0.305-3.146-2.663-5.822-2.61-8.875
				C39.205,79.841,39.254,79.364,39.337,78.903z M142.054,112.707c2.695,4.15,16.07,5.917,17.751-1.044
				c-5.044,2.088-11.142-3.702-6.266-8.355c3.849-2.853,6.529,1.406,8.354,1.567C161.148,84.598,134.605,101.236,142.054,112.707z
				 M89.317,186.843c-4.256-8.514-13.835-14.306-21.405-21.405c-7.665-7.188-14.877-15.53-22.972-20.361
				C59.795,158.594,73.346,176.179,89.317,186.843z M151.973,156.04c-15.712,18.48-64.557,18.823-78.84-1.044
				c-0.115-0.407-0.437-0.607-1.044-0.522C80.746,183.28,141.051,182.281,151.973,156.04z"/>
		</g>
	</g>
</g>
</svg>
