<?xml version="1.0" encoding="utf-8"?>
<!-- Generator: Adobe Illustrator 15.0.2, SVG Export Plug-In . SVG Version: 6.00 Build 0)  -->
<!DOCTYPE svg PUBLIC "-//W3C//DTD SVG 1.1//EN" "http://www.w3.org/Graphics/SVG/1.1/DTD/svg11.dtd">
<svg version="1.1" id="Layer_1" xmlns="http://www.w3.org/2000/svg" xmlns:xlink="http://www.w3.org/1999/xlink" x="0px" y="0px"
	 width="960px" height="640px" viewBox="0 0 960 640" enable-background="new 0 0 960 640" xml:space="preserve">
<path fill="#FFFFFF" stroke="#231F20" stroke-width="5" stroke-miterlimit="10" d="M201.789,168.789c0,18.226-14.774,33-33,33h-124
	c-18.226,0-33-14.774-33-33v-124c0-18.226,14.774-33,33-33h124c18.226,0,33,14.774,33,33V168.789z"/>
<path fill="none" stroke="#231F20" stroke-width="2" stroke-miterlimit="10" d="M213.578,176.482
	c0,20.487-16.608,37.096-37.096,37.096H37.095C16.607,213.578,0,196.97,0,176.482V37.095C0,16.607,16.607,0,37.095,0h139.388
	c20.487,0,37.096,16.607,37.096,37.095V176.482z"/>
<g>
	<path d="M124.854,171.55l-9.609-21.137c-3.65-8.266-6.533-14.99-9.992-22.486h-0.385c-2.307,7.496-5.188,14.221-8.264,22.293
		l-8.646,21.33H48.561l36.322-65.529L49.715,42.028h39.973l8.646,20.562c3.459,7.688,5.957,14.029,8.646,21.33h0.578
		c2.88-8.455,4.804-14.027,7.494-21.139l8.07-20.754h39.588l-35.359,63.223l37.666,66.299H124.854z"/>
</g>
</svg>
