<svg viewBox="0 0 50 50" xmlns="http://www.w3.org/2000/svg">
<rect x="0" y="0"  width="200" height="200" rx="40" ry="40" fill="#000" />

<path fill="#FFFFFF" d="M152.419,113.039c3.831,3.263,4.856,11.23,1.96,15.352c-1.498,2.133-4.947,4.321-7.369,2.521
	c-2.973-2.211-0.578-6.334-1.717-9.146c-0.957-2.36-4.238-2.533-6.822-3.437c-5.281-1.847-8.998-7.933-6.766-13.478
	c0.926-2.303,2.045-2.803,4.416-2.797c2.293,0.006,4.23,2.442,6.307,3.467C146.3,107.436,149.166,110.271,152.419,113.039z"/>
<path fill="#FFFFFF" d="M34.792,95.225c1.131-2.447,2.007-5.091,3.397-7.397c4.065-6.746,9.974-12.025,17.246-15.103
	c10.424-4.41,20.51-5.166,31.695-5.045c8.578,0.092,18.603,2.926,27.111,1.081c5.046-1.094,13.104-5.218,16.327-9.368
	c2.466-3.177,2.373-10.287,7.031-11.791c2.354-0.759,12.111,2.946,14.861,4.192c4.971,2.25,9.312,8.162,10.307,13.479
	c0.529,2.836-0.029,5.373,1.305,8.008c1.143,2.254,3.736,3.39,4.876,5.68c5.45,10.946-4.228,15.116-13.446,11.037
	c-5.995-2.652-9.564-3.891-13.402,3.251c-2.99,5.562-1.414,12.868-2.213,18.89c-1.104,8.305-2.72,16.93-1.916,25.33
	c0.325,3.396-2.053,1.617,1.83,3.452c2.008,0.949,6.615-0.028,8.799,0.074c1.539,7.937-4.092,9.505-10.504,9.505
	c-12.217-0.002-12.025-3.537-15.361-14.688c-2.603-8.699,3.225-23.807-10.239-23.054c-5.281,0.296-10.961,3.677-15.646,5.742
	c-3.468,1.529-6.414,3.994-9.874,5.535c-3.73,1.659-7.342,1.09-10.965,2.213c-3.144,0.974-8.354,3.651-9.591,6.213
	c-2.031,4.201,0.179,15.324,5.038,16.881c-2.559,3.935-8.639,4.12-12.8,4.158c-2.706,0.024-5.388-0.274-8.087-0.356
	c-1.22-0.037-1.79,0.301-3.023-0.002c-7.731-1.896-3.188-17.461-3.649-23.049c-0.341-4.119-1.796-10.072-4.472-13.345
	c-4.449-5.438-4.78-0.597-9.684-1.763c-4.961-1.18-4.899-6.918-2.153-10.672c1.899-2.598,4.245-3.936,5.955-6.719
	C34.007,96.841,34.414,96.043,34.792,95.225z"/>
</svg>
