<?xml version="1.0" encoding="utf-8"?>
<!-- Generator: Adobe Illustrator 15.0.2, SVG Export Plug-In . SVG Version: 6.00 Build 0)  -->
<!DOCTYPE svg PUBLIC "-//W3C//DTD SVG 1.1//EN" "http://www.w3.org/Graphics/SVG/1.1/DTD/svg11.dtd">
<svg version="1.1" id="Layer_1" xmlns="http://www.w3.org/2000/svg" xmlns:xlink="http://www.w3.org/1999/xlink" x="0px" y="0px"
	 width="288px" height="288px" viewBox="0 0 288 288" enable-background="new 0 0 288 288" xml:space="preserve">
<rect fill="none" width="288" height="288"/>
<polygon fill="#129F49" points="204,236.5 192.411,236.494 217.351,180.826 225.564,184.506 "/>
<g>
	<path d="M84.912,96.512c0.503-0.084,1.163-0.156,2.003-0.156c1.031,0,1.787,0.24,2.267,0.672c0.444,0.384,0.708,0.971,0.708,1.691
		c0,0.731-0.216,1.307-0.624,1.727c-0.552,0.587-1.451,0.888-2.471,0.888c-0.312,0-0.6-0.012-0.839-0.072v3.238h-1.043V96.512z
		 M85.955,100.41c0.228,0.06,0.516,0.084,0.863,0.084c1.259,0,2.027-0.612,2.027-1.727c0-1.067-0.755-1.583-1.907-1.583
		c-0.456,0-0.804,0.036-0.983,0.084V100.41z"/>
	<path d="M95.025,103.109c0,0.503,0.024,0.995,0.096,1.391h-0.959l-0.084-0.731h-0.036c-0.324,0.456-0.947,0.863-1.775,0.863
		c-1.175,0-1.775-0.828-1.775-1.667c0-1.403,1.247-2.171,3.49-2.159v-0.12c0-0.479-0.132-1.343-1.319-1.343
		c-0.54,0-1.104,0.168-1.511,0.432l-0.24-0.695c0.48-0.312,1.175-0.516,1.907-0.516c1.775,0,2.207,1.211,2.207,2.375V103.109z
		 M94.006,101.538c-1.151-0.024-2.458,0.18-2.458,1.307c0,0.684,0.456,1.008,0.996,1.008c0.755,0,1.235-0.48,1.403-0.972
		c0.036-0.108,0.06-0.228,0.06-0.336V101.538z"/>
	<path d="M101.685,103.661c0,1.331-0.264,2.146-0.827,2.65c-0.564,0.528-1.379,0.696-2.111,0.696c-0.696,0-1.463-0.168-1.931-0.48
		l0.264-0.804c0.384,0.24,0.983,0.456,1.703,0.456c1.08,0,1.871-0.564,1.871-2.027v-0.648h-0.024
		c-0.324,0.54-0.948,0.972-1.847,0.972c-1.439,0-2.471-1.223-2.471-2.831c0-1.967,1.284-3.082,2.615-3.082
		c1.007,0,1.559,0.527,1.811,1.007h0.024l0.048-0.875h0.924c-0.024,0.419-0.048,0.887-0.048,1.595V103.661z M100.641,100.986
		c0-0.18-0.012-0.336-0.06-0.479c-0.192-0.612-0.708-1.116-1.476-1.116c-1.007,0-1.727,0.852-1.727,2.195
		c0,1.14,0.576,2.087,1.715,2.087c0.647,0,1.235-0.408,1.463-1.079c0.06-0.18,0.083-0.384,0.083-0.564V100.986z"/>
	<path d="M104.027,101.79c0.024,1.427,0.936,2.015,1.991,2.015c0.755,0,1.211-0.132,1.607-0.3l0.18,0.756
		c-0.372,0.168-1.007,0.372-1.931,0.372c-1.787,0-2.854-1.188-2.854-2.938s1.032-3.13,2.723-3.13c1.895,0,2.399,1.667,2.399,2.734
		c0,0.216-0.024,0.384-0.036,0.492H104.027z M107.122,101.034c0.012-0.671-0.276-1.715-1.463-1.715
		c-1.067,0-1.535,0.983-1.619,1.715H107.122z"/>
	<path d="M113.075,97.304h-2.459v-0.887h5.985v0.887h-2.471v7.196h-1.055V97.304z"/>
	<path d="M117.407,98.695l0.768,2.95c0.168,0.647,0.324,1.248,0.432,1.847h0.036c0.132-0.588,0.324-1.211,0.516-1.847l0.947-2.95
		h0.888l0.899,2.902c0.216,0.695,0.384,1.307,0.516,1.895h0.036c0.096-0.588,0.252-1.2,0.444-1.883l0.828-2.914h1.043l-1.871,5.805
		h-0.959l-0.888-2.771c-0.204-0.647-0.372-1.223-0.516-1.907h-0.024c-0.144,0.695-0.324,1.295-0.528,1.919l-0.936,2.758h-0.959
		l-1.751-5.805H117.407z"/>
	<path d="M130.952,101.55c0,2.146-1.487,3.082-2.89,3.082c-1.571,0-2.783-1.151-2.783-2.986c0-1.943,1.271-3.082,2.878-3.082
		C129.825,98.563,130.952,99.774,130.952,101.55z M126.347,101.609c0,1.271,0.732,2.231,1.763,2.231
		c1.007,0,1.763-0.947,1.763-2.255c0-0.983-0.492-2.23-1.739-2.23C126.887,99.355,126.347,100.506,126.347,101.609z"/>
	<path d="M132.779,104.632c-0.408,0-0.695-0.324-0.695-0.744c0-0.432,0.3-0.744,0.708-0.744c0.432,0,0.708,0.312,0.708,0.744
		c0,0.42-0.276,0.744-0.708,0.744H132.779z M132.384,102.173l-0.168-5.757h1.151l-0.168,5.757H132.384z"/>
</g>
<g>
	<path fill="#3C200F" d="M147.419,194.039c3.831,3.263,4.856,11.23,1.96,15.352c-1.498,2.133-4.947,4.321-7.369,2.52
		c-2.973-2.211-0.578-6.334-1.717-9.146c-0.957-2.36-4.238-2.533-6.822-3.436c-5.281-1.847-8.999-7.932-6.766-13.477
		c0.926-2.303,2.045-2.803,4.416-2.797c2.293,0.006,4.231,2.442,6.307,3.467C141.3,188.435,144.166,191.271,147.419,194.039z"/>
	<path fill="#3C200F" d="M34.934,218.824c-1.41,3.034-4.625,8.748-1.083,11.251c2.322,1.642,6.521,0.953,8.976,0.015
		c1.554-0.596,0.976,0.195,1.712-1.184c0.552-1.033,0.205-4.676-0.049-5.941c-0.853-4.254-1.739-7.523-1.961-11.887
		c-0.113-2.229-0.028-4.958-1.058-7.002c-0.895-1.777-3.538-3.957-4.277-0.981c-0.406,1.636,1.319,4.582,1.002,6.711
		C37.716,213.008,36.284,215.92,34.934,218.824z"/>
	<path fill="#9E5224" d="M29.792,176.225c1.131-2.448,2.007-5.091,3.397-7.398c4.065-6.746,9.974-12.025,17.246-15.103
		c10.424-4.41,20.51-5.165,31.695-5.044c8.578,0.092,18.602,2.926,27.111,1.081c5.046-1.094,13.105-5.218,16.327-9.368
		c2.466-3.177,2.373-10.287,7.032-11.791c2.353-0.759,12.111,2.946,14.861,4.192c4.971,2.25,9.312,8.162,10.306,13.479
		c0.53,2.837-0.029,5.373,1.305,8.008c1.143,2.254,3.736,3.39,4.876,5.68c5.451,10.946-4.228,15.116-13.446,11.037
		c-5.995-2.652-9.565-3.891-13.403,3.251c-2.989,5.561-1.414,12.868-2.212,18.889c-1.104,8.306-2.72,16.931-1.916,25.331
		c0.325,3.395-2.053,1.617,1.83,3.452c2.008,0.949,6.615-0.028,8.799,0.074c1.538,7.937-4.092,9.505-10.504,9.505
		c-12.217-0.002-12.025-3.537-15.361-14.688c-2.603-8.699,3.224-23.806-10.24-23.053c-5.281,0.295-10.961,3.676-15.646,5.742
		c-3.468,1.529-6.414,3.994-9.874,5.535c-3.73,1.66-7.342,1.09-10.965,2.213c-3.144,0.974-8.354,3.652-9.591,6.213
		c-2.031,4.201,0.179,15.324,5.038,16.881c-2.559,3.935-8.639,4.12-12.8,4.158c-2.706,0.024-5.388-0.274-8.087-0.356
		c-1.22-0.037-1.79,0.3-3.023-0.003c-7.731-1.895-3.188-17.461-3.649-23.048c-0.341-4.12-1.796-10.073-4.472-13.345
		c-4.449-5.438-4.78-0.596-9.684-1.762c-4.961-1.18-4.899-6.919-2.153-10.673c1.899-2.597,4.245-3.935,5.955-6.719
		C29.007,177.841,29.414,177.043,29.792,176.225z"/>
	<path fill="#3C200F" d="M143.154,151.467c0.988,0.072,3.309,1.332,4.188,0.895c1.846-0.921,0.438-3.298-0.994-3.682
		C144.225,148.109,142.845,151.445,143.154,151.467z"/>
</g>
<path fill="#F04D23" d="M274,158.749c0.001-4.44-6.72-8.102-15.417-8.665c7.032-4.814,10.864-11.198,8.678-14.984
	c-2.22-3.847-9.87-3.656-17.685,0.204c3.684-7.686,3.811-15.13,0.023-17.315c-3.846-2.222-10.377,1.77-15.215,9.022
	c-0.65-8.499-4.263-15.011-8.635-15.011c-4.441,0-8.103,6.721-8.666,15.42c-4.813-7.034-11.197-10.866-14.983-8.681
	c-3.848,2.221-3.656,9.871,0.204,17.688c-7.686-3.686-15.13-3.812-17.315-0.027c-2.222,3.847,1.768,10.377,9.02,15.215
	c-8.499,0.652-15.008,4.264-15.009,8.635c0,4.442,6.72,8.103,15.419,8.668c-7.034,4.814-10.865,11.196-8.68,14.982
	c2.221,3.848,9.87,3.657,17.686-0.204c-3.684,7.687-3.81,15.13-0.024,17.315c3.847,2.222,10.376-1.768,15.214-9.02
	c0.653,8.498,4.266,15.008,8.637,15.008c4.441,0.001,8.103-6.719,8.666-15.418c4.814,7.033,11.198,10.864,14.983,8.679
	c3.847-2.22,3.656-9.87-0.203-17.685c7.685,3.684,15.129,3.81,17.314,0.023c2.222-3.846-1.769-10.375-9.019-15.213
	C267.49,166.733,274.001,163.121,274,158.749z"/>
<circle fill="#FAF067" cx="226" cy="160" r="16"/>
</svg>
