<?xml version="1.0" encoding="utf-8"?>
<!-- Generator: Adobe Illustrator 15.0.2, SVG Export Plug-In . SVG Version: 6.00 Build 0)  -->
<!DOCTYPE svg PUBLIC "-//W3C//DTD SVG 1.1//EN" "http://www.w3.org/Graphics/SVG/1.1/DTD/svg11.dtd">
<svg version="1.1" id="Layer_1" xmlns="http://www.w3.org/2000/svg" xmlns:xlink="http://www.w3.org/1999/xlink" x="0px" y="0px"
	 width="400px" height="123px" viewBox="0 0 400 123" enable-background="new 0 0 400 123" xml:space="preserve">
<g>
	<path d="M34.666,24.768h-4.92v-1.776h11.977v1.776h-4.944v14.401h-2.112V24.768z"/>
	<path d="M43.281,22.127h2.112v7.249h0.048c0.336-0.6,0.864-1.128,1.512-1.488c0.624-0.36,1.368-0.6,2.16-0.6
		c1.561,0,4.057,0.96,4.057,4.968v6.913h-2.112v-6.672c0-1.873-0.696-3.457-2.688-3.457c-1.368,0-2.448,0.96-2.833,2.112
		c-0.12,0.288-0.144,0.6-0.144,1.008v7.009h-2.112V22.127z"/>
	<path d="M57.778,33.745c0.048,2.856,1.872,4.032,3.984,4.032c1.512,0,2.424-0.264,3.216-0.6l0.36,1.512
		c-0.744,0.336-2.016,0.72-3.864,0.72c-3.576,0-5.712-2.353-5.712-5.857c0-3.504,2.064-6.264,5.448-6.264
		c3.792,0,4.801,3.336,4.801,5.472c0,0.432-0.048,0.768-0.072,0.984H57.778z M63.97,32.232c0.024-1.344-0.552-3.433-2.928-3.433
		c-2.136,0-3.072,1.968-3.24,3.433H63.97z"/>
	<path fill="#7F4400" d="M73.617,39.169c0.048-0.792,0.096-1.968,0.096-3V22.127h2.088v7.297h0.048
		c0.744-1.296,2.088-2.136,3.96-2.136c2.88,0,4.92,2.4,4.896,5.928c0,4.152-2.616,6.217-5.208,6.217
		c-1.68,0-3.024-0.648-3.888-2.184h-0.072l-0.096,1.92H73.617z M75.801,34.513c0,0.264,0.048,0.528,0.096,0.768
		c0.408,1.464,1.632,2.472,3.168,2.472c2.208,0,3.528-1.8,3.528-4.464c0-2.328-1.2-4.32-3.456-4.32c-1.44,0-2.784,0.984-3.216,2.592
		c-0.048,0.24-0.12,0.528-0.12,0.864V34.513z"/>
	<path fill="#7F4400" d="M87.369,31.176c0-1.368-0.024-2.544-0.096-3.625h1.848l0.072,2.28h0.096c0.528-1.56,1.8-2.544,3.216-2.544
		c0.24,0,0.408,0.024,0.6,0.072v1.992c-0.216-0.048-0.432-0.072-0.72-0.072c-1.488,0-2.544,1.128-2.832,2.712
		c-0.048,0.288-0.096,0.624-0.096,0.984v6.192h-2.088V31.176z"/>
	<path fill="#7F4400" d="M105.49,33.265c0,4.296-2.977,6.168-5.785,6.168c-3.144,0-5.568-2.304-5.568-5.977
		c0-3.888,2.544-6.168,5.76-6.168C103.234,27.288,105.49,29.712,105.49,33.265z M96.273,33.384c0,2.544,1.464,4.464,3.528,4.464
		c2.016,0,3.528-1.896,3.528-4.512c0-1.968-0.984-4.464-3.48-4.464S96.273,31.176,96.273,33.384z"/>
	<path fill="#7F4400" d="M108.826,27.552l1.536,5.905c0.336,1.296,0.648,2.496,0.864,3.696h0.072
		c0.264-1.176,0.648-2.424,1.032-3.672l1.896-5.929h1.776l1.8,5.809c0.432,1.392,0.768,2.616,1.032,3.792h0.072
		c0.192-1.176,0.504-2.4,0.888-3.769l1.656-5.833h2.088l-3.745,11.617h-1.92l-1.776-5.544c-0.408-1.296-0.744-2.448-1.032-3.816
		h-0.048c-0.288,1.392-0.648,2.592-1.056,3.84l-1.872,5.521h-1.92l-3.504-11.617H108.826z"/>
	<path fill="#7F4400" d="M125.649,30.696c0-1.2-0.024-2.184-0.096-3.145h1.872l0.12,1.92h0.048c0.576-1.104,1.92-2.184,3.84-2.184
		c1.608,0,4.104,0.96,4.104,4.944v6.937h-2.112v-6.697c0-1.872-0.696-3.432-2.688-3.432c-1.393,0-2.473,0.984-2.833,2.16
		c-0.096,0.264-0.144,0.624-0.144,0.984v6.984h-2.112V30.696z"/>
	<path d="M143.961,39.169c0.048-0.792,0.096-1.968,0.096-3V22.127h2.088v7.297h0.048c0.744-1.296,2.088-2.136,3.96-2.136
		c2.88,0,4.92,2.4,4.896,5.928c0,4.152-2.616,6.217-5.208,6.217c-1.68,0-3.024-0.648-3.888-2.184h-0.072l-0.096,1.92H143.961z
		 M146.146,34.513c0,0.264,0.048,0.528,0.096,0.768c0.408,1.464,1.632,2.472,3.168,2.472c2.208,0,3.528-1.8,3.528-4.464
		c0-2.328-1.2-4.32-3.456-4.32c-1.44,0-2.784,0.984-3.216,2.592c-0.048,0.24-0.12,0.528-0.12,0.864V34.513z"/>
	<path d="M158.889,33.745c0.048,2.856,1.872,4.032,3.984,4.032c1.512,0,2.424-0.264,3.216-0.6l0.36,1.512
		c-0.744,0.336-2.016,0.72-3.864,0.72c-3.576,0-5.712-2.353-5.712-5.857c0-3.504,2.064-6.264,5.448-6.264
		c3.792,0,4.801,3.336,4.801,5.472c0,0.432-0.048,0.768-0.072,0.984H158.889z M165.082,32.232c0.024-1.344-0.552-3.433-2.928-3.433
		c-2.136,0-3.072,1.968-3.24,3.433H165.082z"/>
	<path d="M176.169,39.169l-0.168-1.464h-0.072c-0.648,0.912-1.896,1.729-3.552,1.729c-2.353,0-3.553-1.656-3.553-3.336
		c0-2.808,2.497-4.344,6.985-4.32v-0.24c0-0.96-0.264-2.688-2.64-2.688c-1.08,0-2.208,0.336-3.024,0.864l-0.48-1.392
		c0.96-0.624,2.352-1.032,3.816-1.032c3.552,0,4.417,2.424,4.417,4.752v4.344c0,1.008,0.048,1.992,0.192,2.784H176.169z
		 M175.857,33.24c-2.304-0.048-4.92,0.36-4.92,2.616c0,1.368,0.912,2.017,1.992,2.017c1.512,0,2.472-0.96,2.808-1.944
		c0.072-0.216,0.12-0.456,0.12-0.672V33.24z"/>
	<path d="M181.305,31.176c0-1.368-0.024-2.544-0.096-3.625h1.848l0.072,2.28h0.096c0.528-1.56,1.8-2.544,3.216-2.544
		c0.24,0,0.408,0.024,0.6,0.072v1.992c-0.216-0.048-0.432-0.072-0.72-0.072c-1.488,0-2.544,1.128-2.832,2.712
		c-0.048,0.288-0.096,0.624-0.096,0.984v6.192h-2.088V31.176z"/>
	<path d="M196.593,24.288c0.024,0.72-0.504,1.296-1.344,1.296c-0.744,0-1.272-0.576-1.272-1.296c0-0.744,0.552-1.32,1.32-1.32
		C196.088,22.968,196.593,23.543,196.593,24.288z M194.24,39.169V27.552h2.112v11.617H194.24z"/>
	<path d="M199.569,37.009c0.623,0.408,1.728,0.84,2.783,0.84c1.537,0,2.256-0.768,2.256-1.728c0-1.008-0.6-1.56-2.16-2.136
		c-2.087-0.744-3.072-1.896-3.072-3.288c0-1.872,1.513-3.408,4.009-3.408c1.176,0,2.207,0.336,2.855,0.72l-0.527,1.536
		c-0.457-0.288-1.297-0.672-2.377-0.672c-1.248,0-1.943,0.72-1.943,1.584c0,0.96,0.695,1.392,2.207,1.968
		c2.018,0.768,3.049,1.776,3.049,3.504c0,2.04-1.584,3.48-4.344,3.48c-1.273,0-2.449-0.312-3.265-0.792L199.569,37.009z"/>
	<path d="M220.879,39.169l-0.168-1.464h-0.072c-0.646,0.912-1.895,1.729-3.551,1.729c-2.354,0-3.553-1.656-3.553-3.336
		c0-2.808,2.496-4.344,6.984-4.32v-0.24c0-0.96-0.264-2.688-2.641-2.688c-1.08,0-2.207,0.336-3.023,0.864l-0.48-1.392
		c0.961-0.624,2.352-1.032,3.816-1.032c3.553,0,4.416,2.424,4.416,4.752v4.344c0,1.008,0.049,1.992,0.191,2.784H220.879z
		 M220.568,33.24c-2.305-0.048-4.922,0.36-4.922,2.616c0,1.368,0.912,2.017,1.992,2.017c1.514,0,2.473-0.96,2.809-1.944
		c0.072-0.216,0.121-0.456,0.121-0.672V33.24z"/>
	<path d="M231.318,39.169V29.16h-1.633v-1.608h1.633V27c0-1.632,0.359-3.121,1.344-4.057c0.793-0.768,1.848-1.08,2.832-1.08
		c0.744,0,1.393,0.168,1.801,0.336l-0.289,1.632c-0.311-0.144-0.742-0.264-1.344-0.264c-1.799,0-2.256,1.584-2.256,3.36v0.624h2.809
		v1.608h-2.809v10.009H231.318z"/>
	<path d="M238.975,33.745c0.049,2.856,1.873,4.032,3.984,4.032c1.512,0,2.424-0.264,3.217-0.6l0.359,1.512
		c-0.744,0.336-2.016,0.72-3.863,0.72c-3.578,0-5.713-2.353-5.713-5.857c0-3.504,2.064-6.264,5.447-6.264
		c3.793,0,4.801,3.336,4.801,5.472c0,0.432-0.047,0.768-0.072,0.984H238.975z M245.168,32.232c0.023-1.344-0.553-3.433-2.93-3.433
		c-2.135,0-3.072,1.968-3.24,3.433H245.168z"/>
	<path d="M256.254,39.169l-0.168-1.464h-0.072c-0.646,0.912-1.895,1.729-3.551,1.729c-2.354,0-3.553-1.656-3.553-3.336
		c0-2.808,2.496-4.344,6.984-4.32v-0.24c0-0.96-0.264-2.688-2.641-2.688c-1.08,0-2.207,0.336-3.023,0.864l-0.48-1.392
		c0.961-0.624,2.352-1.032,3.816-1.032c3.553,0,4.416,2.424,4.416,4.752v4.344c0,1.008,0.049,1.992,0.191,2.784H256.254z
		 M255.943,33.24c-2.305-0.048-4.922,0.36-4.922,2.616c0,1.368,0.912,2.017,1.992,2.017c1.514,0,2.473-0.96,2.809-1.944
		c0.072-0.216,0.121-0.456,0.121-0.672V33.24z"/>
	<path d="M261.391,31.176c0-1.368-0.023-2.544-0.096-3.625h1.848l0.072,2.28h0.096c0.527-1.56,1.801-2.544,3.217-2.544
		c0.24,0,0.408,0.024,0.6,0.072v1.992c-0.217-0.048-0.432-0.072-0.721-0.072c-1.488,0-2.543,1.128-2.832,2.712
		c-0.047,0.288-0.096,0.624-0.096,0.984v6.192h-2.088V31.176z"/>
	<path d="M268.949,37.009c0.625,0.408,1.729,0.84,2.785,0.84c1.535,0,2.256-0.768,2.256-1.728c0-1.008-0.6-1.56-2.16-2.136
		c-2.088-0.744-3.072-1.896-3.072-3.288c0-1.872,1.512-3.408,4.008-3.408c1.178,0,2.209,0.336,2.857,0.72l-0.529,1.536
		c-0.455-0.288-1.295-0.672-2.375-0.672c-1.248,0-1.945,0.72-1.945,1.584c0,0.96,0.697,1.392,2.209,1.968
		c2.016,0.768,3.049,1.776,3.049,3.504c0,2.04-1.584,3.48-4.346,3.48c-1.271,0-2.447-0.312-3.264-0.792L268.949,37.009z"/>
	<path d="M289.254,33.265c0,4.296-2.975,6.168-5.783,6.168c-3.145,0-5.568-2.304-5.568-5.977c0-3.888,2.543-6.168,5.76-6.168
		C286.998,27.288,289.254,29.712,289.254,33.265z M280.037,33.384c0,2.544,1.465,4.464,3.529,4.464c2.016,0,3.527-1.896,3.527-4.512
		c0-1.968-0.982-4.464-3.479-4.464C281.117,28.872,280.037,31.176,280.037,33.384z"/>
	<path d="M291.918,30.696c0-1.2-0.023-2.184-0.096-3.145h1.848l0.096,1.873h0.072c0.648-1.104,1.729-2.136,3.648-2.136
		c1.584,0,2.783,0.96,3.289,2.328h0.047c0.359-0.648,0.816-1.152,1.297-1.512c0.695-0.528,1.463-0.816,2.568-0.816
		c1.535,0,3.816,1.008,3.816,5.04v6.841h-2.064v-6.577c0-2.232-0.816-3.576-2.521-3.576c-1.199,0-2.135,0.888-2.496,1.92
		c-0.096,0.288-0.168,0.672-0.168,1.056v7.177h-2.064v-6.96c0-1.848-0.814-3.192-2.424-3.192c-1.32,0-2.279,1.056-2.615,2.112
		c-0.121,0.312-0.168,0.672-0.168,1.032v7.009h-2.064V30.696z"/>
	<path d="M313.109,33.745c0.049,2.856,1.873,4.032,3.984,4.032c1.512,0,2.424-0.264,3.217-0.6l0.359,1.512
		c-0.744,0.336-2.016,0.72-3.863,0.72c-3.578,0-5.713-2.353-5.713-5.857c0-3.504,2.064-6.264,5.447-6.264
		c3.793,0,4.801,3.336,4.801,5.472c0,0.432-0.047,0.768-0.072,0.984H313.109z M319.303,32.232c0.023-1.344-0.553-3.433-2.93-3.433
		c-2.135,0-3.072,1.968-3.24,3.433H319.303z"/>
	<path d="M37.954,67.969l-0.168-1.464h-0.072c-0.648,0.912-1.896,1.729-3.552,1.729c-2.353,0-3.553-1.656-3.553-3.336
		c0-2.808,2.497-4.344,6.985-4.32v-0.24c0-0.96-0.264-2.688-2.64-2.688c-1.08,0-2.208,0.336-3.024,0.864l-0.48-1.392
		c0.96-0.624,2.352-1.032,3.816-1.032c3.552,0,4.417,2.424,4.417,4.752v4.344c0,1.008,0.048,1.992,0.192,2.784H37.954z
		 M37.642,62.04c-2.304-0.048-4.92,0.36-4.92,2.616c0,1.368,0.912,2.017,1.992,2.017c1.512,0,2.472-0.96,2.808-1.944
		c0.072-0.216,0.12-0.456,0.12-0.672V62.04z"/>
	<path d="M43.089,59.496c0-1.2-0.024-2.184-0.096-3.145h1.872l0.12,1.92h0.048c0.576-1.104,1.92-2.184,3.84-2.184
		c1.608,0,4.104,0.96,4.104,4.944v6.937h-2.112v-6.697c0-1.872-0.696-3.432-2.688-3.432c-1.393,0-2.473,0.984-2.833,2.16
		c-0.096,0.264-0.144,0.624-0.144,0.984v6.984h-2.112V59.496z"/>
	<path d="M58.762,53.087c0.024,0.72-0.504,1.296-1.344,1.296c-0.744,0-1.272-0.576-1.272-1.296c0-0.744,0.552-1.32,1.32-1.32
		C58.257,51.768,58.762,52.343,58.762,53.087z M56.409,67.969V56.352h2.112v11.617H56.409z"/>
	<path d="M62.025,59.496c0-1.2-0.024-2.184-0.096-3.145h1.848l0.096,1.873h0.072c0.648-1.104,1.728-2.136,3.648-2.136
		c1.584,0,2.784,0.96,3.288,2.328h0.048c0.36-0.648,0.816-1.152,1.296-1.512c0.696-0.528,1.464-0.816,2.568-0.816
		c1.536,0,3.816,1.008,3.816,5.04v6.841h-2.064v-6.577c0-2.232-0.816-3.576-2.52-3.576c-1.2,0-2.136,0.888-2.497,1.92
		c-0.096,0.288-0.168,0.672-0.168,1.056v7.177h-2.064v-6.96c0-1.848-0.816-3.192-2.424-3.192c-1.32,0-2.28,1.056-2.616,2.112
		c-0.12,0.312-0.168,0.672-0.168,1.032v7.009h-2.064V59.496z"/>
	<path d="M88.474,67.969l-0.168-1.464h-0.072c-0.648,0.912-1.896,1.729-3.552,1.729c-2.353,0-3.553-1.656-3.553-3.336
		c0-2.808,2.497-4.344,6.985-4.32v-0.24c0-0.96-0.264-2.688-2.64-2.688c-1.08,0-2.208,0.336-3.024,0.864l-0.48-1.392
		c0.96-0.624,2.352-1.032,3.816-1.032c3.552,0,4.417,2.424,4.417,4.752v4.344c0,1.008,0.048,1.992,0.192,2.784H88.474z
		 M88.162,62.04c-2.304-0.048-4.92,0.36-4.92,2.616c0,1.368,0.912,2.017,1.992,2.017c1.512,0,2.472-0.96,2.808-1.944
		c0.072-0.216,0.12-0.456,0.12-0.672V62.04z"/>
	<path d="M93.609,50.927h2.112v17.042h-2.112V50.927z"/>
	<path d="M97.665,70.921c0.528-1.416,1.176-3.984,1.44-5.736l2.352-0.24c-0.552,2.041-1.608,4.705-2.28,5.833L97.665,70.921z"/>
	<path d="M111.177,61.68h0.048c0.288-0.408,0.696-0.912,1.032-1.32l3.408-4.008h2.544l-4.488,4.776l5.112,6.841h-2.568l-4.008-5.568
		l-1.08,1.2v4.368h-2.088V50.927h2.088V61.68z"/>
	<path d="M120.752,59.496c0-1.2-0.024-2.184-0.096-3.145h1.872l0.12,1.92h0.048c0.576-1.104,1.92-2.184,3.84-2.184
		c1.608,0,4.104,0.96,4.104,4.944v6.937h-2.112v-6.697c0-1.872-0.696-3.432-2.688-3.432c-1.393,0-2.473,0.984-2.833,2.16
		c-0.096,0.264-0.144,0.624-0.144,0.984v6.984h-2.112V59.496z"/>
	<path d="M144.585,62.064c0,4.296-2.977,6.168-5.785,6.168c-3.144,0-5.568-2.304-5.568-5.977c0-3.888,2.544-6.168,5.76-6.168
		C142.329,56.088,144.585,58.512,144.585,62.064z M135.368,62.184c0,2.544,1.464,4.464,3.528,4.464c2.016,0,3.528-1.896,3.528-4.512
		c0-1.968-0.984-4.464-3.48-4.464S135.368,59.976,135.368,62.184z"/>
	<path d="M147.92,56.352l1.536,5.905c0.336,1.296,0.648,2.496,0.864,3.696h0.072c0.264-1.176,0.648-2.424,1.032-3.672l1.896-5.929
		h1.776l1.8,5.809c0.432,1.392,0.768,2.616,1.032,3.792h0.072c0.192-1.176,0.504-2.4,0.888-3.769l1.656-5.833h2.088l-3.745,11.617
		h-1.92l-1.776-5.544c-0.408-1.296-0.744-2.448-1.032-3.816h-0.048c-0.288,1.392-0.648,2.592-1.056,3.84l-1.872,5.521h-1.92
		l-3.504-11.617H147.92z"/>
	<path d="M164.744,59.496c0-1.2-0.024-2.184-0.096-3.145h1.872l0.12,1.92h0.048c0.576-1.104,1.92-2.184,3.84-2.184
		c1.608,0,4.104,0.96,4.104,4.944v6.937h-2.112v-6.697c0-1.872-0.696-3.432-2.688-3.432c-1.393,0-2.473,0.984-2.833,2.16
		c-0.096,0.264-0.144,0.624-0.144,0.984v6.984h-2.112V59.496z"/>
	<path d="M185.696,53.016v3.336h3.024v1.608h-3.024v6.265c0,1.44,0.408,2.256,1.584,2.256c0.552,0,0.96-0.072,1.224-0.144
		l0.096,1.584c-0.408,0.168-1.056,0.288-1.872,0.288c-0.984,0-1.776-0.312-2.28-0.888c-0.6-0.624-0.816-1.656-0.816-3.024V57.96
		h-1.8v-1.608h1.8v-2.784L185.696,53.016z"/>
	<path d="M201.465,62.064c0,4.296-2.977,6.168-5.785,6.168c-3.144,0-5.568-2.304-5.568-5.977c0-3.888,2.544-6.168,5.76-6.168
		C199.208,56.088,201.465,58.512,201.465,62.064z M192.248,62.184c0,2.544,1.464,4.464,3.528,4.464c2.016,0,3.528-1.896,3.528-4.512
		c0-1.968-0.984-4.464-3.48-4.464S192.248,59.976,192.248,62.184z"/>
	<path d="M209.215,60.144c0-1.488-0.049-2.688-0.096-3.792h1.896l0.096,1.992h0.047c0.865-1.416,2.232-2.256,4.129-2.256
		c2.809,0,4.92,2.376,4.92,5.904c0,4.176-2.543,6.241-5.279,6.241c-1.537,0-2.881-0.672-3.576-1.824h-0.049v6.312h-2.088V60.144z
		 M211.303,63.24c0,0.312,0.049,0.6,0.096,0.864c0.385,1.464,1.656,2.472,3.168,2.472c2.232,0,3.529-1.824,3.529-4.488
		c0-2.328-1.225-4.32-3.457-4.32c-1.439,0-2.783,1.032-3.191,2.616c-0.072,0.264-0.145,0.576-0.145,0.864V63.24z"/>
	<path d="M225.223,53.087c0.023,0.72-0.504,1.296-1.346,1.296c-0.742,0-1.271-0.576-1.271-1.296c0-0.744,0.553-1.32,1.32-1.32
		C224.719,51.768,225.223,52.343,225.223,53.087z M222.869,67.969V56.352h2.113v11.617H222.869z"/>
	<path d="M228.486,50.927h2.111v17.042h-2.111V50.927z"/>
	<path d="M234.365,67.969V57.96h-1.631v-1.608h1.631V55.8c0-1.632,0.361-3.121,1.346-4.057c0.791-0.768,1.848-1.08,2.832-1.08
		c0.744,0,1.393,0.168,1.799,0.336l-0.287,1.632c-0.312-0.144-0.744-0.264-1.344-0.264c-1.801,0-2.256,1.584-2.256,3.36v0.624h2.807
		v1.608h-2.807v10.009H234.365z"/>
	<path d="M242.023,62.544c0.047,2.856,1.871,4.032,3.984,4.032c1.512,0,2.424-0.264,3.215-0.6l0.361,1.512
		c-0.744,0.336-2.018,0.72-3.865,0.72c-3.576,0-5.713-2.353-5.713-5.857c0-3.504,2.064-6.264,5.449-6.264
		c3.793,0,4.801,3.336,4.801,5.472c0,0.432-0.049,0.768-0.072,0.984H242.023z M248.215,61.032c0.023-1.344-0.553-3.433-2.928-3.433
		c-2.137,0-3.072,1.968-3.24,3.433H248.215z"/>
	<path d="M252.869,59.976c0-1.368-0.023-2.544-0.096-3.625h1.848l0.072,2.28h0.096c0.529-1.56,1.801-2.544,3.217-2.544
		c0.24,0,0.408,0.024,0.6,0.072v1.992c-0.215-0.048-0.432-0.072-0.719-0.072c-1.488,0-2.545,1.128-2.832,2.712
		c-0.049,0.288-0.096,0.624-0.096,0.984v6.192h-2.09V59.976z"/>
	<path fill="#DF9800" d="M265.805,50.927h2.113v7.249h0.047c0.336-0.6,0.865-1.128,1.514-1.488c0.623-0.36,1.367-0.6,2.16-0.6
		c1.559,0,4.055,0.96,4.055,4.968v6.913h-2.111v-6.672c0-1.873-0.695-3.457-2.688-3.457c-1.369,0-2.449,0.96-2.832,2.112
		c-0.121,0.288-0.145,0.6-0.145,1.008v7.009h-2.113V50.927z"/>
	<path fill="#DF9800" d="M289.637,62.064c0,4.296-2.975,6.168-5.783,6.168c-3.145,0-5.568-2.304-5.568-5.977
		c0-3.888,2.543-6.168,5.76-6.168C287.381,56.088,289.637,58.512,289.637,62.064z M280.42,62.184c0,2.544,1.465,4.464,3.529,4.464
		c2.016,0,3.527-1.896,3.527-4.512c0-1.968-0.982-4.464-3.479-4.464C281.5,57.672,280.42,59.976,280.42,62.184z"/>
	<path fill="#DF9800" d="M292.301,59.496c0-1.2-0.023-2.184-0.096-3.145h1.871l0.121,1.92h0.047c0.576-1.104,1.92-2.184,3.842-2.184
		c1.607,0,4.104,0.96,4.104,4.944v6.937h-2.111v-6.697c0-1.872-0.697-3.432-2.689-3.432c-1.393,0-2.473,0.984-2.832,2.16
		c-0.096,0.264-0.145,0.624-0.145,0.984v6.984h-2.111V59.496z"/>
	<path fill="#DF9800" d="M306.797,62.544c0.049,2.856,1.873,4.032,3.984,4.032c1.512,0,2.424-0.264,3.217-0.6l0.359,1.512
		c-0.744,0.336-2.016,0.72-3.863,0.72c-3.578,0-5.713-2.353-5.713-5.857c0-3.504,2.064-6.264,5.447-6.264
		c3.793,0,4.801,3.336,4.801,5.472c0,0.432-0.047,0.768-0.072,0.984H306.797z M312.99,61.032c0.023-1.344-0.553-3.433-2.93-3.433
		c-2.135,0-3.072,1.968-3.24,3.433H312.99z"/>
	<path fill="#DF9800" d="M318.412,56.352l2.545,6.865c0.264,0.768,0.551,1.68,0.744,2.376h0.047
		c0.217-0.696,0.457-1.584,0.744-2.424l2.305-6.817h2.232l-3.168,8.281c-1.512,3.984-2.545,6.025-3.984,7.273
		c-1.033,0.912-2.064,1.272-2.592,1.368l-0.529-1.776c0.529-0.168,1.225-0.504,1.848-1.032c0.576-0.456,1.297-1.272,1.777-2.352
		c0.096-0.216,0.168-0.384,0.168-0.504c0-0.12-0.049-0.288-0.145-0.552l-4.297-10.705H318.412z"/>
	<path d="M331.203,71.329c0.961-0.072,1.801-0.336,2.305-0.888c0.576-0.672,0.793-1.584,0.793-4.368v-9.721h2.111v10.537
		c0,2.256-0.359,3.72-1.393,4.776c-0.936,0.936-2.473,1.32-3.6,1.32L331.203,71.329z M336.652,53.087
		c0.023,0.696-0.48,1.296-1.32,1.296c-0.793,0-1.297-0.6-1.297-1.296c0-0.744,0.553-1.32,1.346-1.32
		C336.148,51.768,336.652,52.343,336.652,53.087z"/>
	<path d="M346.301,67.969l-0.168-1.464h-0.072c-0.648,0.912-1.896,1.729-3.553,1.729c-2.352,0-3.553-1.656-3.553-3.336
		c0-2.808,2.496-4.344,6.984-4.32v-0.24c0-0.96-0.264-2.688-2.639-2.688c-1.08,0-2.209,0.336-3.025,0.864l-0.48-1.392
		c0.961-0.624,2.354-1.032,3.816-1.032c3.553,0,4.418,2.424,4.418,4.752v4.344c0,1.008,0.047,1.992,0.191,2.784H346.301z
		 M345.988,62.04c-2.305-0.048-4.92,0.36-4.92,2.616c0,1.368,0.912,2.017,1.992,2.017c1.512,0,2.473-0.96,2.809-1.944
		c0.07-0.216,0.119-0.456,0.119-0.672V62.04z"/>
	<path d="M351.436,59.976c0-1.368-0.023-2.544-0.096-3.625h1.848l0.072,2.28h0.096c0.527-1.56,1.801-2.544,3.217-2.544
		c0.24,0,0.408,0.024,0.6,0.072v1.992c-0.217-0.048-0.432-0.072-0.721-0.072c-1.488,0-2.543,1.128-2.832,2.712
		c-0.047,0.288-0.096,0.624-0.096,0.984v6.192h-2.088V59.976z"/>
	<path d="M358.994,65.809c0.625,0.408,1.729,0.84,2.785,0.84c1.535,0,2.256-0.768,2.256-1.728c0-1.008-0.6-1.56-2.16-2.136
		c-2.088-0.744-3.072-1.896-3.072-3.288c0-1.872,1.512-3.408,4.008-3.408c1.178,0,2.209,0.336,2.857,0.72l-0.529,1.536
		c-0.455-0.288-1.295-0.672-2.375-0.672c-1.248,0-1.945,0.72-1.945,1.584c0,0.96,0.697,1.392,2.209,1.968
		c2.016,0.768,3.049,1.776,3.049,3.504c0,2.04-1.584,3.48-4.346,3.48c-1.271,0-2.447-0.312-3.264-0.792L358.994,65.809z"/>
	<path d="M37.954,96.769l-0.168-1.464h-0.072c-0.648,0.912-1.896,1.729-3.552,1.729c-2.353,0-3.553-1.656-3.553-3.336
		c0-2.808,2.497-4.344,6.985-4.32v-0.24c0-0.96-0.264-2.688-2.64-2.688c-1.08,0-2.208,0.336-3.024,0.864l-0.48-1.392
		c0.96-0.624,2.352-1.032,3.816-1.032c3.552,0,4.417,2.424,4.417,4.752v4.344c0,1.008,0.048,1.992,0.192,2.784H37.954z
		 M37.642,90.84c-2.304-0.048-4.92,0.36-4.92,2.616c0,1.368,0.912,2.017,1.992,2.017c1.512,0,2.472-0.96,2.808-1.944
		c0.072-0.216,0.12-0.456,0.12-0.672V90.84z"/>
	<path d="M43.089,88.296c0-1.2-0.024-2.184-0.096-3.145h1.872l0.12,1.92h0.048c0.576-1.104,1.92-2.184,3.84-2.184
		c1.608,0,4.104,0.96,4.104,4.944v6.937h-2.112v-6.697c0-1.872-0.696-3.432-2.688-3.432c-1.393,0-2.473,0.984-2.833,2.16
		c-0.096,0.264-0.144,0.624-0.144,0.984v6.984h-2.112V88.296z"/>
	<path d="M66.442,79.727v14.041c0,1.032,0.024,2.208,0.096,3h-1.896l-0.096-2.016h-0.048c-0.648,1.296-2.064,2.28-3.96,2.28
		c-2.808,0-4.968-2.376-4.968-5.905c-0.024-3.864,2.376-6.24,5.208-6.24c1.776,0,2.976,0.84,3.504,1.776h0.048v-6.937H66.442z
		 M64.33,89.88c0-0.264-0.024-0.624-0.096-0.888c-0.312-1.344-1.464-2.448-3.048-2.448c-2.184,0-3.48,1.92-3.48,4.489
		c0,2.352,1.152,4.296,3.432,4.296c1.416,0,2.712-0.936,3.096-2.521c0.072-0.288,0.096-0.576,0.096-0.912V89.88z"/>
	<path d="M75.033,88.944c0-1.488-0.048-2.688-0.096-3.792h1.896l0.096,1.992h0.048c0.864-1.416,2.232-2.256,4.128-2.256
		c2.808,0,4.92,2.376,4.92,5.904c0,4.176-2.544,6.241-5.28,6.241c-1.536,0-2.88-0.672-3.577-1.824h-0.048v6.312h-2.088V88.944z
		 M77.122,92.04c0,0.312,0.048,0.6,0.096,0.864c0.384,1.464,1.656,2.472,3.168,2.472c2.232,0,3.528-1.824,3.528-4.488
		c0-2.328-1.224-4.32-3.456-4.32c-1.44,0-2.784,1.032-3.192,2.616c-0.072,0.264-0.144,0.576-0.144,0.864V92.04z"/>
	<path d="M91.042,81.887c0.024,0.72-0.504,1.296-1.344,1.296c-0.744,0-1.272-0.576-1.272-1.296c0-0.744,0.552-1.32,1.32-1.32
		C90.537,80.567,91.042,81.143,91.042,81.887z M88.689,96.769V85.151h2.112v11.617H88.689z"/>
	<path d="M102.585,96.336c-0.552,0.288-1.776,0.672-3.336,0.672c-3.504,0-5.785-2.376-5.785-5.929c0-3.576,2.448-6.168,6.241-6.168
		c1.248,0,2.352,0.312,2.928,0.6l-0.48,1.632c-0.504-0.288-1.296-0.552-2.448-0.552c-2.665,0-4.104,1.968-4.104,4.392
		c0,2.688,1.728,4.345,4.032,4.345c1.2,0,1.992-0.312,2.592-0.576L102.585,96.336z"/>
	<path d="M111.489,96.769l-0.168-1.464h-0.072c-0.648,0.912-1.896,1.729-3.552,1.729c-2.353,0-3.553-1.656-3.553-3.336
		c0-2.808,2.497-4.344,6.985-4.32v-0.24c0-0.96-0.264-2.688-2.64-2.688c-1.08,0-2.208,0.336-3.024,0.864l-0.48-1.392
		c0.96-0.624,2.352-1.032,3.816-1.032c3.552,0,4.417,2.424,4.417,4.752v4.344c0,1.008,0.048,1.992,0.192,2.784H111.489z
		 M111.177,90.84c-2.304-0.048-4.92,0.36-4.92,2.616c0,1.368,0.912,2.017,1.992,2.017c1.512,0,2.472-0.96,2.808-1.944
		c0.072-0.216,0.12-0.456,0.12-0.672V90.84z"/>
	<path d="M116.625,88.296c0-1.2-0.024-2.184-0.096-3.145h1.872l0.12,1.92h0.048c0.576-1.104,1.92-2.184,3.84-2.184
		c1.608,0,4.104,0.96,4.104,4.944v6.937h-2.112v-6.697c0-1.872-0.696-3.432-2.688-3.432c-1.393,0-2.473,0.984-2.833,2.16
		c-0.096,0.264-0.144,0.624-0.144,0.984v6.984h-2.112V88.296z"/>
	<path d="M132.297,81.887c0.024,0.72-0.504,1.296-1.344,1.296c-0.744,0-1.272-0.576-1.272-1.296c0-0.744,0.552-1.32,1.32-1.32
		C131.792,80.567,132.297,81.143,132.297,81.887z M129.944,96.769V85.151h2.112v11.617H129.944z"/>
	<path d="M143.841,96.336c-0.552,0.288-1.776,0.672-3.336,0.672c-3.504,0-5.785-2.376-5.785-5.929c0-3.576,2.448-6.168,6.241-6.168
		c1.248,0,2.352,0.312,2.928,0.6l-0.48,1.632c-0.504-0.288-1.296-0.552-2.448-0.552c-2.665,0-4.104,1.968-4.104,4.392
		c0,2.688,1.728,4.345,4.032,4.345c1.2,0,1.992-0.312,2.592-0.576L143.841,96.336z"/>
	<path d="M151.304,96.769c0.048-0.792,0.096-1.968,0.096-3V79.727h2.088v7.297h0.048c0.744-1.296,2.088-2.136,3.96-2.136
		c2.88,0,4.92,2.4,4.896,5.928c0,4.152-2.616,6.217-5.208,6.217c-1.68,0-3.024-0.648-3.888-2.184h-0.072l-0.096,1.92H151.304z
		 M153.488,92.112c0,0.264,0.048,0.528,0.096,0.768c0.408,1.464,1.632,2.472,3.168,2.472c2.208,0,3.528-1.8,3.528-4.464
		c0-2.328-1.2-4.32-3.456-4.32c-1.44,0-2.784,0.984-3.216,2.592c-0.048,0.24-0.12,0.528-0.12,0.864V92.112z"/>
	<path d="M171.488,96.769l-0.168-1.464h-0.072c-0.648,0.912-1.896,1.729-3.552,1.729c-2.353,0-3.553-1.656-3.553-3.336
		c0-2.808,2.497-4.344,6.985-4.32v-0.24c0-0.96-0.264-2.688-2.64-2.688c-1.08,0-2.208,0.336-3.024,0.864l-0.48-1.392
		c0.96-0.624,2.352-1.032,3.816-1.032c3.552,0,4.417,2.424,4.417,4.752v4.344c0,1.008,0.048,1.992,0.192,2.784H171.488z
		 M171.176,90.84c-2.304-0.048-4.92,0.36-4.92,2.616c0,1.368,0.912,2.017,1.992,2.017c1.512,0,2.472-0.96,2.808-1.944
		c0.072-0.216,0.12-0.456,0.12-0.672V90.84z"/>
	<path d="M176.336,94.608c0.624,0.408,1.728,0.84,2.784,0.84c1.536,0,2.256-0.768,2.256-1.728c0-1.008-0.6-1.56-2.16-2.136
		c-2.088-0.744-3.072-1.896-3.072-3.288c0-1.872,1.512-3.408,4.008-3.408c1.176,0,2.208,0.336,2.856,0.72l-0.528,1.536
		c-0.456-0.288-1.296-0.672-2.376-0.672c-1.248,0-1.944,0.72-1.944,1.584c0,0.96,0.696,1.392,2.208,1.968
		c2.016,0.768,3.048,1.776,3.048,3.504c0,2.04-1.584,3.48-4.345,3.48c-1.272,0-2.448-0.312-3.264-0.792L176.336,94.608z"/>
	<path d="M188.216,90.48h0.048c0.288-0.408,0.696-0.912,1.032-1.32l3.408-4.008h2.544l-4.488,4.776l5.112,6.841h-2.568l-4.008-5.568
		l-1.08,1.2v4.368h-2.088V79.727h2.088V90.48z"/>
	<path d="M198.56,91.344c0.048,2.856,1.873,4.032,3.983,4.032c1.514,0,2.426-0.264,3.217-0.6l0.359,1.512
		c-0.744,0.336-2.016,0.72-3.863,0.72c-3.576,0-5.712-2.353-5.712-5.857c0-3.504,2.064-6.264,5.449-6.264
		c3.791,0,4.801,3.336,4.801,5.472c0,0.432-0.049,0.768-0.072,0.984H198.56z M204.752,89.832c0.023-1.344-0.553-3.433-2.928-3.433
		c-2.136,0-3.073,1.968-3.241,3.433H204.752z"/>
	<path d="M211.951,81.815v3.336h3.023v1.608h-3.023v6.265c0,1.44,0.408,2.256,1.584,2.256c0.553,0,0.961-0.072,1.225-0.144
		l0.096,1.584c-0.408,0.168-1.057,0.288-1.873,0.288c-0.982,0-1.775-0.312-2.279-0.888c-0.6-0.624-0.816-1.656-0.816-3.024V86.76
		h-1.799v-1.608h1.799v-2.784L211.951,81.815z"/>
	<path d="M217.062,94.608c0.625,0.408,1.729,0.84,2.785,0.84c1.535,0,2.256-0.768,2.256-1.728c0-1.008-0.6-1.56-2.16-2.136
		c-2.088-0.744-3.072-1.896-3.072-3.288c0-1.872,1.512-3.408,4.008-3.408c1.178,0,2.209,0.336,2.857,0.72l-0.529,1.536
		c-0.455-0.288-1.295-0.672-2.375-0.672c-1.248,0-1.945,0.72-1.945,1.584c0,0.96,0.697,1.392,2.209,1.968
		c2.016,0.768,3.049,1.776,3.049,3.504c0,2.04-1.584,3.48-4.346,3.48c-1.271,0-2.447-0.312-3.264-0.792L217.062,94.608z"/>
	<path d="M241.664,93.6c0,1.2,0.023,2.256,0.096,3.168h-1.871l-0.121-1.896h-0.047c-0.553,0.936-1.777,2.16-3.842,2.16
		c-1.824,0-4.008-1.008-4.008-5.088v-6.793h2.111v6.433c0,2.208,0.674,3.696,2.594,3.696c1.416,0,2.4-0.984,2.783-1.92
		c0.121-0.312,0.191-0.696,0.191-1.08v-7.129h2.113V93.6z"/>
	<path d="M245.166,88.296c0-1.2-0.023-2.184-0.096-3.145h1.873l0.119,1.92h0.049c0.576-1.104,1.92-2.184,3.84-2.184
		c1.607,0,4.104,0.96,4.104,4.944v6.937h-2.111v-6.697c0-1.872-0.695-3.432-2.688-3.432c-1.393,0-2.473,0.984-2.832,2.16
		c-0.098,0.264-0.145,0.624-0.145,0.984v6.984h-2.113V88.296z"/>
	<path d="M258.486,88.944c0-1.488-0.049-2.688-0.096-3.792h1.896l0.096,1.992h0.047c0.865-1.416,2.232-2.256,4.129-2.256
		c2.809,0,4.92,2.376,4.92,5.904c0,4.176-2.543,6.241-5.279,6.241c-1.537,0-2.881-0.672-3.576-1.824h-0.049v6.312h-2.088V88.944z
		 M260.574,92.04c0,0.312,0.049,0.6,0.096,0.864c0.385,1.464,1.656,2.472,3.168,2.472c2.232,0,3.529-1.824,3.529-4.488
		c0-2.328-1.225-4.32-3.457-4.32c-1.439,0-2.783,1.032-3.191,2.616c-0.072,0.264-0.145,0.576-0.145,0.864V92.04z"/>
	<path d="M272.141,88.776c0-1.368-0.023-2.544-0.096-3.625h1.848l0.072,2.28h0.096c0.529-1.56,1.801-2.544,3.217-2.544
		c0.24,0,0.408,0.024,0.6,0.072v1.992c-0.215-0.048-0.432-0.072-0.719-0.072c-1.488,0-2.545,1.128-2.832,2.712
		c-0.049,0.288-0.096,0.624-0.096,0.984v6.192h-2.09V88.776z"/>
	<path d="M290.262,90.864c0,4.296-2.977,6.168-5.785,6.168c-3.145,0-5.568-2.304-5.568-5.977c0-3.888,2.545-6.168,5.762-6.168
		C288.006,84.888,290.262,87.312,290.262,90.864z M281.045,90.984c0,2.544,1.465,4.464,3.527,4.464c2.018,0,3.529-1.896,3.529-4.512
		c0-1.968-0.984-4.464-3.48-4.464S281.045,88.776,281.045,90.984z"/>
	<path d="M293.574,85.151l2.279,6.529c0.385,1.056,0.697,2.016,0.936,2.976h0.072c0.264-0.96,0.602-1.92,0.984-2.976l2.256-6.529
		h2.209l-4.561,11.617h-2.016l-4.416-11.617H293.574z"/>
	<path d="M314.574,90.864c0,4.296-2.977,6.168-5.785,6.168c-3.145,0-5.568-2.304-5.568-5.977c0-3.888,2.545-6.168,5.762-6.168
		C312.318,84.888,314.574,87.312,314.574,90.864z M305.357,90.984c0,2.544,1.465,4.464,3.527,4.464c2.018,0,3.529-1.896,3.529-4.512
		c0-1.968-0.984-4.464-3.48-4.464S305.357,88.776,305.357,90.984z"/>
	<path d="M319.326,90.48h0.047c0.289-0.408,0.695-0.912,1.033-1.32l3.408-4.008h2.543l-4.488,4.776l5.113,6.841h-2.568l-4.008-5.568
		l-1.08,1.2v4.368h-2.09V79.727h2.09V90.48z"/>
	<path d="M329.67,91.344c0.047,2.856,1.871,4.032,3.984,4.032c1.512,0,2.424-0.264,3.215-0.6l0.361,1.512
		c-0.744,0.336-2.018,0.72-3.865,0.72c-3.576,0-5.713-2.353-5.713-5.857c0-3.504,2.064-6.264,5.449-6.264
		c3.793,0,4.801,3.336,4.801,5.472c0,0.432-0.049,0.768-0.072,0.984H329.67z M335.861,89.832c0.023-1.344-0.553-3.433-2.928-3.433
		c-2.137,0-3.072,1.968-3.24,3.433H335.861z"/>
	<path d="M350.549,79.727v14.041c0,1.032,0.023,2.208,0.096,3h-1.895l-0.098-2.016h-0.047c-0.648,1.296-2.064,2.28-3.961,2.28
		c-2.809,0-4.969-2.376-4.969-5.905c-0.023-3.864,2.377-6.24,5.209-6.24c1.775,0,2.977,0.84,3.504,1.776h0.049v-6.937H350.549z
		 M348.438,89.88c0-0.264-0.025-0.624-0.096-0.888c-0.312-1.344-1.465-2.448-3.049-2.448c-2.184,0-3.48,1.92-3.48,4.489
		c0,2.352,1.152,4.296,3.432,4.296c1.416,0,2.713-0.936,3.098-2.521c0.07-0.288,0.096-0.576,0.096-0.912V89.88z"/>
	<path d="M353.309,95.521c0-0.888,0.6-1.512,1.439-1.512s1.416,0.624,1.416,1.512c0,0.864-0.551,1.512-1.439,1.512
		C353.885,97.033,353.309,96.385,353.309,95.521z"/>
</g>
</svg>
